<svg width="16" height="15" viewBox="0 0 16 15" fill="none" xmlns="http://www.w3.org/2000/svg">
<path d="M4.44158 8.10449L5.11918 6.41265L5.79518 8.10449H4.44158ZM11.2 7.30449H12V8.90449H11.2C10.7582 8.90449 10.4 8.54633 10.4 8.10449C10.4 7.66265 10.7582 7.30449 11.2 7.30449ZM15.2 0.104492H0.8C0.358176 0.104492 0 0.462668 0 0.904492V13.7045C0 14.1463 0.358176 14.5045 0.8 14.5045H15.2C15.6418 14.5045 16 14.1463 16 13.7045V0.904492C16 0.462668 15.6418 0.104492 15.2 0.104492ZM8.4784 10.5045H6.7544L6.4344 9.70449H3.80238L3.48238 10.5045H1.75918L2.71838 8.10609L2.71918 8.10449L4.31918 4.10449H5.91918L8.4784 10.5045ZM12 4.10449H13.6V10.5045H11.2C9.87448 10.5045 8.8 9.43001 8.8 8.10449C8.8 6.77897 9.87448 5.70449 11.2 5.70449H12V4.10449Z" fill="black"/>
</svg>
