<svg width="48" height="51" viewBox="0 0 48 51" fill="none" xmlns="http://www.w3.org/2000/svg">
<path d="M23.9998 50.9088C36.0497 50.9088 45.818 41.1405 45.818 29.0906C45.818 17.0408 36.0497 7.27246 23.9998 7.27246C11.95 7.27246 2.18164 17.0408 2.18164 29.0906C2.18164 41.1405 11.95 50.9088 23.9998 50.9088Z" fill="#E6E6E6"/>
<mask id="mask0_983_108" style="mask-type:luminance" maskUnits="userSpaceOnUse" x="2" y="7" width="44" height="44">
<path d="M23.9979 50.9098C36.0477 50.9098 45.8161 41.1415 45.8161 29.0916C45.8161 17.0418 36.0477 7.27344 23.9979 7.27344C11.948 7.27344 2.17969 17.0418 2.17969 29.0916C2.17969 41.1415 11.948 50.9098 23.9979 50.9098Z" fill="#F6F5F4"/>
</mask>
<g mask="url(#mask0_983_108)">
<path d="M45.8161 7.27344H2.17969V50.9098H45.8161V7.27344Z" fill="#F6F5F4"/>
</g>
<mask id="mask1_983_108" style="mask-type:luminance" maskUnits="userSpaceOnUse" x="0" y="0" width="48" height="51">
<path d="M2.18182 29.0909C2.18182 41.1408 11.9502 50.9091 24 50.9091C36.0499 50.9091 45.8182 41.1408 45.8182 29.0909H48V0H0V29.0909H2.18182Z" fill="white"/>
</mask>
<g mask="url(#mask1_983_108)">
<path d="M28.3638 32.8388V36.1823H29.0911C36.321 36.1823 42.182 42.0433 42.182 49.2732V50.9095H5.81836V49.2732C5.81836 42.0433 11.6794 36.1823 18.9093 36.1823H19.6365V32.8388C16.5025 31.35 14.2497 28.3072 13.8738 24.7061C12.8148 24.5564 12.0002 23.6463 12.0002 22.5459V20.0004C12.0002 18.9194 12.7865 18.0219 13.8184 17.8488V16.7277C13.8184 11.1045 18.3769 6.5459 24.0002 6.5459C29.6234 6.5459 34.182 11.1045 34.182 16.7277V17.8488C35.2139 18.0219 36.0002 18.9194 36.0002 20.0004V22.5459C36.0002 23.6463 35.1856 24.5564 34.1265 24.7061C33.7507 28.3072 31.4979 31.35 28.3638 32.8388Z" fill="#D0C6AC"/>
<mask id="mask2_983_108" style="mask-type:luminance" maskUnits="userSpaceOnUse" x="5" y="6" width="38" height="45">
<path d="M28.3638 32.8398V36.1832H29.0911C36.321 36.1832 42.182 42.0442 42.182 49.2741V50.9105H5.81836V49.2741C5.81836 42.0442 11.6794 36.1832 18.9093 36.1832H19.6365V32.8398C16.5025 31.3509 14.2497 28.3082 13.8738 24.7071C12.8148 24.5574 12.0002 23.6473 12.0002 22.5469V20.0014C12.0002 18.9203 12.7865 18.0229 13.8184 17.8498V16.7287C13.8184 11.1054 18.3769 6.54688 24.0002 6.54688C29.6234 6.54687 34.182 11.1054 34.182 16.7287V17.8498C35.2139 18.0229 36.0002 18.9203 36.0002 20.0014V22.5469C36.0002 23.6473 35.1856 24.5574 34.1265 24.7071C33.7507 28.3082 31.4979 31.3509 28.3638 32.8398Z" fill="white"/>
</mask>
<g mask="url(#mask2_983_108)">
<path d="M53.8184 6.54688H5.81836V57.456H53.8184V6.54688Z" fill="#EDB98A"/>
</g>
<mask id="mask3_983_108" style="mask-type:luminance" maskUnits="userSpaceOnUse" x="5" y="6" width="38" height="45">
<path d="M28.3638 32.8398V36.1832H29.0911C36.321 36.1832 42.182 42.0442 42.182 49.2741V50.9105H5.81836V49.2741C5.81836 42.0442 11.6794 36.1832 18.9093 36.1832H19.6365V32.8398C16.5025 31.3509 14.2497 28.3082 13.8738 24.7071C12.8148 24.5574 12.0002 23.6473 12.0002 22.5469V20.0014C12.0002 18.9203 12.7865 18.0229 13.8184 17.8498V16.7287C13.8184 11.1054 18.3769 6.54688 24.0002 6.54688C29.6234 6.54687 34.182 11.1054 34.182 16.7287V17.8498C35.2139 18.0229 36.0002 18.9203 36.0002 20.0014V22.5469C36.0002 23.6473 35.1856 24.5574 34.1265 24.7071C33.7507 28.3082 31.4979 31.3509 28.3638 32.8398Z" fill="white"/>
</mask>
<g mask="url(#mask3_983_108)">
<path fill-rule="evenodd" clip-rule="evenodd" d="M34.182 20.9102V25.092C34.182 30.7152 29.6234 35.2738 24.0002 35.2738C18.3769 35.2738 13.8184 30.7152 13.8184 25.092V20.9102V23.6374C13.8184 29.2607 18.3769 33.8192 24.0002 33.8192C29.6234 33.8192 34.182 29.2607 34.182 23.6374V20.9102Z" fill="black" fill-opacity="0.1"/>
</g>
<path fill-rule="evenodd" clip-rule="evenodd" d="M19.1261 36.1904H18.9093C11.6794 36.1904 5.81836 42.0514 5.81836 49.2813V50.9083H42.182V49.2813C42.182 42.0514 36.321 36.1904 29.0911 36.1904H28.8743C28.8974 36.3693 28.9093 36.5513 28.9093 36.7359C28.9093 39.2463 26.7114 41.2813 24.0002 41.2813C21.289 41.2813 19.0911 39.2463 19.0911 36.7359C19.0911 36.5513 19.103 36.3693 19.1261 36.1904Z" fill="#E6E6E6"/>
<mask id="mask4_983_108" style="mask-type:luminance" maskUnits="userSpaceOnUse" x="5" y="36" width="38" height="15">
<path fill-rule="evenodd" clip-rule="evenodd" d="M19.1261 36.1914H18.9093C11.6794 36.1914 5.81836 42.0524 5.81836 49.2823V50.9093H42.182V49.2823C42.182 42.0524 36.321 36.1914 29.0911 36.1914H28.8743C28.8974 36.3702 28.9093 36.5523 28.9093 36.7369C28.9093 39.2472 26.7114 41.2823 24.0002 41.2823C21.289 41.2823 19.0911 39.2472 19.0911 36.7369C19.0911 36.5523 19.103 36.3702 19.1261 36.1914Z" fill="white"/>
</mask>
<g mask="url(#mask4_983_108)">
<path d="M48 30.9092H0V50.9092H48V30.9092Z" fill="#262E33"/>
</g>
<path fill-rule="evenodd" clip-rule="evenodd" d="M18.3247 36.2041C11.3661 36.5099 5.81836 42.2482 5.81836 49.2822V50.9092H18.4296C17.8112 48.7128 17.4547 46.1289 17.4547 43.3637C17.4547 40.7588 17.7711 38.3148 18.3247 36.2041ZM29.7526 50.9092H42.182V49.2822C42.182 42.3104 36.732 36.6115 29.8599 36.2135C30.412 38.3221 30.7275 40.7626 30.7275 43.3637C30.7275 46.1289 30.371 48.7128 29.7526 50.9092Z" fill="#3A4C5A"/>
<path fill-rule="evenodd" clip-rule="evenodd" d="M32.9082 46.5452L34.6456 45.2421C34.908 45.0454 35.2696 45.0485 35.5285 45.2499L36.7264 46.1816L32.9082 46.5452Z" fill="#E6E6E6"/>
<path fill-rule="evenodd" clip-rule="evenodd" d="M18.3638 36C17.6365 39.5152 17.9396 44.4848 19.2729 50.9091H16.3638L13.8184 44.3636L14.9093 42.7273L13.8184 41.6364L17.2729 36.1818C17.6416 36.0671 18.0052 36.0065 18.3638 36Z" fill="#2F4351"/>
<path fill-rule="evenodd" clip-rule="evenodd" d="M29.6362 36C30.3635 39.5152 30.0604 44.4848 28.7271 50.9091H31.6362L34.1816 44.3636L33.0907 42.7273L34.1816 41.6364L30.7271 36.1818C30.3584 36.0671 29.9948 36.0065 29.6362 36Z" fill="#2F4351"/>
<path fill-rule="evenodd" clip-rule="evenodd" d="M28.364 34.8252C29.5953 35.661 30.364 36.8465 30.364 38.1614C30.364 39.507 29.5589 40.7172 28.2767 41.5556L27.1966 40.7047L26.364 40.765L26.5458 40.1921L26.5317 40.1809C27.6408 39.6096 28.364 38.6727 28.364 37.6139V34.8252ZM19.6367 34.8252C18.4054 35.661 17.6367 36.8465 17.6367 38.1614C17.6367 39.507 18.4418 40.7172 19.724 41.5556L20.8041 40.7047L21.6367 40.765L21.4549 40.1921L21.469 40.1809C20.3599 39.6096 19.6367 38.6727 19.6367 37.6139V34.8252Z" fill="#F2F2F2"/>
<path fill-rule="evenodd" clip-rule="evenodd" d="M21.4551 27.0908C21.4551 28.4966 22.5947 29.6363 24.0005 29.6363C25.4063 29.6363 26.546 28.4966 26.546 27.0908" fill="black" fill-opacity="0.7"/>
<path fill-rule="evenodd" clip-rule="evenodd" d="M21.8203 23.6367C21.8203 24.44 22.7971 25.0913 24.0021 25.0913C25.2071 25.0913 26.1839 24.44 26.1839 23.6367" fill="black" fill-opacity="0.16"/>
<path fill-rule="evenodd" clip-rule="evenodd" d="M16.7576 20.4457C17.0934 19.755 17.8493 19.2734 18.7281 19.2734C19.6037 19.2734 20.3574 19.7516 20.6949 20.4384C20.7952 20.6424 20.6525 20.8093 20.5086 20.6856C20.063 20.3025 19.4301 20.0632 18.7281 20.0632C18.048 20.0632 17.4328 20.2878 16.9899 20.6501C16.8279 20.7826 16.6594 20.6477 16.7576 20.4457Z" fill="black" fill-opacity="0.6"/>
<path fill-rule="evenodd" clip-rule="evenodd" d="M27.3026 20.4457C27.6383 19.755 28.3942 19.2734 29.273 19.2734C30.1487 19.2734 30.9024 19.7516 31.2399 20.4384C31.3401 20.6424 31.1975 20.8093 31.0535 20.6856C30.6079 20.3025 29.975 20.0632 29.273 20.0632C28.5929 20.0632 27.9778 20.2878 27.5348 20.6501C27.3729 20.7826 27.2044 20.6477 27.3026 20.4457Z" fill="black" fill-opacity="0.6"/>
<path fill-rule="evenodd" clip-rule="evenodd" d="M18.645 16.0271C17.5892 16.0759 15.8822 16.8431 15.9262 17.9078C15.9277 17.9427 15.9789 17.958 16.0039 17.9312C16.5048 17.3931 20.0612 16.8494 21.3139 17.1375C21.4285 17.1639 21.5156 17.0508 21.443 16.9691C20.8208 16.2695 19.5909 15.9825 18.645 16.0271Z" fill="black" fill-opacity="0.6"/>
<path fill-rule="evenodd" clip-rule="evenodd" d="M29.5367 16.0271C30.5925 16.0759 32.2994 16.8431 32.2554 17.9078C32.254 17.9427 32.2028 17.958 32.1778 17.9312C31.6769 17.3931 28.1204 16.8494 26.8678 17.1375C26.7531 17.1639 26.666 17.0508 26.7387 16.9691C27.3609 16.2695 28.5907 15.9825 29.5367 16.0271Z" fill="black" fill-opacity="0.6"/>
<mask id="mask5_983_108" style="mask-type:luminance" maskUnits="userSpaceOnUse" x="0" y="0" width="48" height="51">
<path d="M48 0H0V50.9091H48V0Z" fill="white"/>
</mask>
<g mask="url(#mask5_983_108)">
<path fill-rule="evenodd" clip-rule="evenodd" d="M32.5734 7.25817C32.0717 6.74544 31.4891 6.31024 30.9224 5.87383C30.7974 5.77763 30.6703 5.68374 30.5481 5.58388C30.5203 5.56119 30.2356 5.35732 30.2016 5.28228C30.1196 5.10178 30.1671 5.24233 30.1784 5.02693C30.1927 4.75455 30.7481 3.98524 30.3337 3.80882C30.1513 3.73123 29.8261 3.93772 29.6512 4.00592C29.3091 4.1394 28.9628 4.25323 28.6092 4.35138C28.7786 4.01379 29.1017 3.338 28.4945 3.51888C28.0215 3.65979 27.5807 4.02209 27.1054 4.19253C27.2627 3.93473 27.8916 3.1359 27.3233 3.09125C27.1464 3.07734 26.6318 3.40907 26.4414 3.47983C25.8711 3.69182 25.2886 3.82883 24.6898 3.93674C22.6538 4.30368 20.2729 4.19906 18.3892 5.126C16.937 5.84058 15.503 6.94937 14.6641 8.36128C13.8555 9.72219 13.553 11.2116 13.3838 12.7711C13.2596 13.9155 13.2495 15.0986 13.3076 16.2472C13.3266 16.6235 13.3689 18.3582 13.9156 17.8329C14.188 17.5711 14.186 16.5141 14.2546 16.1563C14.3911 15.4445 14.5225 14.7295 14.7502 14.0404C15.1513 12.8261 15.6245 11.5326 16.6238 10.6962C17.2651 10.1596 17.7154 9.43426 18.3291 8.89286C18.6047 8.6497 18.3944 8.67502 18.8376 8.70692C19.1353 8.72834 19.4344 8.73651 19.7328 8.74432C20.423 8.76225 21.1142 8.75768 21.8046 8.76012C23.1949 8.76512 24.5788 8.78476 25.9677 8.71199C26.585 8.67966 27.204 8.66215 27.8196 8.60505C28.1635 8.57314 28.7737 8.35274 29.0568 8.52117C29.3159 8.67526 29.5849 9.17842 29.7709 9.38448C30.2104 9.87147 30.7345 10.2434 31.2484 10.6427C32.3201 11.4754 32.8611 12.5211 33.1866 13.8223C33.5109 15.1187 33.42 16.3214 33.8213 17.5971C33.8919 17.8215 34.0787 18.2081 34.3089 17.8615C34.3517 17.7972 34.3406 17.4434 34.3406 17.2398C34.3406 16.418 34.5487 15.8014 34.5461 14.9743C34.5359 12.4594 34.4546 9.18006 32.5734 7.25817Z" fill="#1F3140"/>
<mask id="mask6_983_108" style="mask-type:luminance" maskUnits="userSpaceOnUse" x="13" y="3" width="22" height="15">
<path fill-rule="evenodd" clip-rule="evenodd" d="M32.5734 7.25817C32.0717 6.74544 31.4891 6.31024 30.9224 5.87383C30.7974 5.77763 30.6703 5.68374 30.5481 5.58388C30.5203 5.56119 30.2356 5.35732 30.2016 5.28228C30.1196 5.10178 30.1671 5.24233 30.1784 5.02693C30.1927 4.75455 30.7481 3.98524 30.3337 3.80882C30.1513 3.73123 29.8261 3.93772 29.6512 4.00592C29.3091 4.1394 28.9628 4.25323 28.6092 4.35138C28.7786 4.01379 29.1017 3.338 28.4945 3.51888C28.0215 3.65979 27.5807 4.02209 27.1054 4.19253C27.2627 3.93473 27.8916 3.1359 27.3233 3.09125C27.1464 3.07734 26.6318 3.40907 26.4414 3.47983C25.8711 3.69182 25.2886 3.82883 24.6898 3.93674C22.6538 4.30368 20.2729 4.19906 18.3892 5.126C16.937 5.84058 15.503 6.94937 14.6641 8.36128C13.8555 9.72219 13.553 11.2116 13.3838 12.7711C13.2596 13.9155 13.2495 15.0986 13.3076 16.2472C13.3266 16.6235 13.3689 18.3582 13.9156 17.8329C14.188 17.5711 14.186 16.5141 14.2546 16.1563C14.3911 15.4445 14.5225 14.7295 14.7502 14.0404C15.1513 12.8261 15.6245 11.5326 16.6238 10.6962C17.2651 10.1596 17.7154 9.43426 18.3291 8.89286C18.6047 8.6497 18.3944 8.67502 18.8376 8.70692C19.1353 8.72834 19.4344 8.73651 19.7328 8.74432C20.423 8.76225 21.1142 8.75768 21.8046 8.76012C23.1949 8.76512 24.5788 8.78476 25.9677 8.71199C26.585 8.67966 27.204 8.66215 27.8196 8.60505C28.1635 8.57314 28.7737 8.35274 29.0568 8.52117C29.3159 8.67526 29.5849 9.17842 29.7709 9.38448C30.2104 9.87147 30.7345 10.2434 31.2484 10.6427C32.3201 11.4754 32.8611 12.5211 33.1866 13.8223C33.5109 15.1187 33.42 16.3214 33.8213 17.5971C33.8919 17.8215 34.0787 18.2081 34.3089 17.8615C34.3517 17.7972 34.3406 17.4434 34.3406 17.2398C34.3406 16.418 34.5487 15.8014 34.5461 14.9743C34.5359 12.4594 34.4546 9.18006 32.5734 7.25817Z" fill="white"/>
</mask>
<g mask="url(#mask6_983_108)">
<path d="M47.8203 0H-0.179688V50.9091H47.8203V0Z" fill="#4A312C"/>
<path d="M47.8203 0H-0.179688V50.9091H47.8203V0Z" fill="#4A312C"/>
</g>
</g>
</g>
</svg>
