<svg width="16" height="17" viewBox="0 0 16 17" fill="none" xmlns="http://www.w3.org/2000/svg">
<path d="M10.614 10.9555L8.76732 14.8364C8.64847 15.0861 8.3497 15.1921 8.1 15.0733C8.04433 15.0468 7.99401 15.0103 7.95161 14.9655L4.99607 11.8453C4.91695 11.7617 4.8115 11.708 4.69743 11.6931L0.435893 11.1361C0.161671 11.1003 -0.0315644 10.8489 0.00428026 10.5746C0.0122671 10.5136 0.0314873 10.4544 0.0609558 10.4002L2.11516 6.62514C2.17015 6.52407 2.18867 6.40715 2.1676 6.29409L1.38049 2.069C1.32984 1.79713 1.50918 1.53567 1.78105 1.48502C1.84167 1.47373 1.90385 1.47373 1.96447 1.48502L6.18957 2.27214C6.30268 2.2932 6.4196 2.27469 6.52058 2.2197L10.2957 0.16549C10.5386 0.0333034 10.8427 0.123078 10.9748 0.365986C11.0044 0.42015 11.0236 0.479287 11.0315 0.540427L11.5886 4.80196C11.6035 4.91603 11.6573 5.02149 11.7407 5.1006L14.861 8.05609C15.0618 8.24629 15.0704 8.56325 14.8802 8.76405C14.8378 8.80878 14.7875 8.84534 14.7318 8.87179L10.851 10.7185C10.7471 10.7679 10.6634 10.8516 10.614 10.9555ZM11.2789 12.5637L12.4592 11.3835L16 14.9242L14.8198 16.1045L11.2789 12.5637Z" fill="black"/>
</svg>
