<svg width="16" height="17" viewBox="0 0 16 17" fill="none" xmlns="http://www.w3.org/2000/svg">
<path d="M8 0.104492C12.4178 0.104492 16 3.28672 16 7.21561C16 9.66897 14.0089 11.66 11.5555 11.66H9.98224C9.24448 11.66 8.64888 12.2556 8.64888 12.9934C8.64888 13.3311 8.78224 13.6423 8.98664 13.8734C9.2 14.1134 9.33336 14.4245 9.33336 14.7711C9.33336 15.509 8.72 16.1045 8 16.1045C3.58222 16.1045 0 12.5223 0 8.10449C0 3.68672 3.58222 0.104492 8 0.104492ZM4.4 8.10449C5.06274 8.10449 5.6 7.56721 5.6 6.90449C5.6 6.24175 5.06274 5.70449 4.4 5.70449C3.73726 5.70449 3.2 6.24175 3.2 6.90449C3.2 7.56721 3.73726 8.10449 4.4 8.10449ZM11.6 8.10449C12.2627 8.10449 12.8 7.56721 12.8 6.90449C12.8 6.24175 12.2627 5.70449 11.6 5.70449C10.9373 5.70449 10.4 6.24175 10.4 6.90449C10.4 7.56721 10.9373 8.10449 11.6 8.10449ZM8 5.70449C8.66272 5.70449 9.2 5.16724 9.2 4.50449C9.2 3.84175 8.66272 3.30449 8 3.30449C7.33728 3.30449 6.8 3.84175 6.8 4.50449C6.8 5.16724 7.33728 5.70449 8 5.70449Z" fill="black"/>
</svg>
