<svg width="196" height="25" viewBox="0 0 196 25" fill="none" xmlns="http://www.w3.org/2000/svg">
<path d="M12.4675 0.0713384C12.1631 -0.0237795 11.8386 -0.0237795 11.5342 0.0713384L1.09734 3.33035C0.429337 3.53906 -0.016902 4.16412 0.000490977 4.8631C0.351612 18.8574 6.94246 22.6376 11.6391 24.8851C11.8674 24.9944 12.1337 24.9944 12.362 24.8851C17.0576 22.6371 23.6484 18.8568 23.9995 4.8631C24.0164 4.16467 23.5696 3.53798 22.9022 3.33035L12.4675 0.0713384ZM15.5808 9.20646C15.5808 9.48311 15.3786 9.69563 15.1014 9.69563H13.1327L13.8872 17.7807C13.8986 17.9035 13.8649 18.029 13.7915 18.128L12.4604 19.9325C12.3658 20.0597 12.2169 20.1363 12.0582 20.1363C12.0392 20.1363 11.9631 20.1374 11.944 20.1374C11.7853 20.1374 11.6364 20.0618 11.5418 19.9336L10.2113 18.1307C10.1373 18.0312 10.1036 17.9029 10.1156 17.7796L10.8695 9.69509H8.90026C8.6236 9.69509 8.39858 9.48257 8.39858 9.20591V8.58031C8.39858 8.30365 8.6236 8.09874 8.90026 8.09874H10.8428V6.22139C10.3602 5.86537 10.0477 5.29358 10.0477 4.64841C10.0477 3.5695 10.9217 2.69442 12.0016 2.69442C13.0795 2.69442 13.9551 3.56896 13.9551 4.64841C13.9551 5.30336 13.6322 5.88277 13.1371 6.23715V8.09874H15.1019C15.3791 8.09874 15.5813 8.30365 15.5813 8.58031L15.5808 9.20646Z" fill="black"/>
<path d="M39.0023 19.1634C37.8083 19.1634 36.7703 18.8934 35.8883 18.3534C35.0123 17.8074 34.3343 17.0364 33.8543 16.0404C33.3803 15.0444 33.1433 13.8684 33.1433 12.5124C33.1433 11.1324 33.3923 9.9414 33.8903 8.9394C34.3943 7.9314 35.0963 7.1544 35.9963 6.6084C36.8963 6.0624 37.9463 5.7894 39.1463 5.7894C39.9203 5.7894 40.6253 5.9124 41.2613 6.1584C41.8973 6.4044 42.4493 6.7404 42.9173 7.1664C43.3913 7.5924 43.7603 8.0754 44.0243 8.6154C44.2943 9.1494 44.4413 9.7044 44.4653 10.2804H41.6933C41.6153 9.8664 41.4593 9.4884 41.2253 9.1464C40.9973 8.8044 40.7033 8.5314 40.3433 8.3274C39.9833 8.1174 39.5633 8.0124 39.0833 8.0124C38.5073 8.0124 37.9853 8.1624 37.5173 8.4624C37.0493 8.7564 36.6803 9.2274 36.4103 9.8754C36.1403 10.5234 36.0053 11.3784 36.0053 12.4404C36.0053 13.2984 36.0923 14.0124 36.2663 14.5824C36.4463 15.1524 36.6863 15.6054 36.9863 15.9414C37.2863 16.2714 37.6283 16.5054 38.0123 16.6434C38.3963 16.7814 38.7893 16.8504 39.1913 16.8504C39.5753 16.8504 39.9173 16.7874 40.2173 16.6614C40.5233 16.5294 40.7843 16.3614 41.0003 16.1574C41.2163 15.9534 41.3873 15.7314 41.5133 15.4914C41.6393 15.2454 41.7203 15.0054 41.7563 14.7714L41.8553 13.9794H39.1643V12.1614L44.6093 12.1884V18.9834H42.8183V17.2824C42.5963 17.5764 42.3203 17.8704 41.9903 18.1644C41.6663 18.4524 41.2613 18.6924 40.7753 18.8844C40.2953 19.0704 39.7043 19.1634 39.0023 19.1634ZM47.0625 18.9834V9.6774H49.5915V11.8824C49.7415 11.4084 49.9515 10.9944 50.2215 10.6404C50.4975 10.2804 50.8305 10.0014 51.2205 9.8034C51.6105 9.5994 52.0515 9.4974 52.5435 9.4974C52.6275 9.4974 52.7055 9.5034 52.7775 9.5154C52.8555 9.5214 52.9125 9.5334 52.9485 9.5514V12.0534C52.8945 12.0294 52.8285 12.0144 52.7505 12.0084C52.6785 12.0024 52.6125 11.9964 52.5525 11.9904C52.0365 11.9484 51.5955 11.9634 51.2295 12.0354C50.8635 12.1074 50.5665 12.2304 50.3385 12.4044C50.1105 12.5784 49.9455 12.7914 49.8435 13.0434C49.7415 13.2954 49.6905 13.5774 49.6905 13.8894V18.9834H47.0625ZM58.3358 19.1634C57.4238 19.1634 56.6288 18.9684 55.9508 18.5784C55.2788 18.1884 54.7568 17.6364 54.3848 16.9224C54.0188 16.2084 53.8358 15.3624 53.8358 14.3844C53.8358 13.4064 54.0188 12.5514 54.3848 11.8194C54.7568 11.0874 55.2788 10.5174 55.9508 10.1094C56.6288 9.7014 57.4268 9.4974 58.3448 9.4974C59.2628 9.4974 60.0578 9.6984 60.7298 10.1004C61.4018 10.4964 61.9208 11.0604 62.2868 11.7924C62.6528 12.5244 62.8358 13.3884 62.8358 14.3844C62.8358 15.3204 62.6558 16.1484 62.2958 16.8684C61.9418 17.5824 61.4288 18.1434 60.7568 18.5514C60.0908 18.9594 59.2838 19.1634 58.3358 19.1634ZM58.3448 17.2104C58.8068 17.2104 59.1788 17.0754 59.4608 16.8054C59.7428 16.5354 59.9468 16.1814 60.0728 15.7434C60.2048 15.2994 60.2708 14.8164 60.2708 14.2944C60.2708 13.8024 60.2108 13.3374 60.0908 12.8994C59.9768 12.4614 59.7788 12.1074 59.4968 11.8374C59.2148 11.5674 58.8308 11.4324 58.3448 11.4324C57.8828 11.4324 57.5078 11.5614 57.2198 11.8194C56.9378 12.0714 56.7308 12.4164 56.5988 12.8544C56.4668 13.2864 56.4008 13.7664 56.4008 14.2944C56.4008 14.7804 56.4608 15.2484 56.5808 15.6984C56.7008 16.1424 56.9018 16.5054 57.1838 16.7874C57.4658 17.0694 57.8528 17.2104 58.3448 17.2104ZM77.0352 9.6774L73.9752 18.9834H71.8872L70.1502 13.3494L68.4222 18.9834H66.3882L63.3732 9.6774H65.6952L67.4772 15.4464H67.5492L69.2592 9.6774H71.1312L72.8592 15.4464H72.9312L74.6592 9.6774H77.0352ZM84.461 11.5044H82.391L82.409 16.4634C82.409 16.6914 82.436 16.8624 82.49 16.9764C82.55 17.0844 82.64 17.1564 82.76 17.1924C82.886 17.2224 83.045 17.2374 83.237 17.2374H84.488V18.8574C84.368 18.9114 84.179 18.9624 83.921 19.0104C83.669 19.0584 83.315 19.0824 82.859 19.0824C82.043 19.0824 81.41 18.9774 80.96 18.7674C80.516 18.5574 80.207 18.2634 80.033 17.8854C79.859 17.5074 79.772 17.0694 79.772 16.5714V11.5044H78.26V9.6774H79.862L80.519 6.8694H82.391V9.6684H84.461V11.5044ZM86.4023 18.9834V5.6094H89.0123V11.0184C89.1623 10.8024 89.3513 10.5894 89.5793 10.3794C89.8073 10.1634 90.0923 9.9834 90.4343 9.8394C90.7763 9.6954 91.1933 9.6234 91.6853 9.6234C92.2793 9.6234 92.8193 9.7404 93.3053 9.9744C93.7973 10.2024 94.1903 10.5354 94.4843 10.9734C94.7843 11.4114 94.9343 11.9454 94.9343 12.5754V18.9834H92.2973V12.9624C92.2973 12.5424 92.1443 12.2214 91.8383 11.9994C91.5383 11.7714 91.1723 11.6574 90.7403 11.6574C90.4583 11.6574 90.1853 11.7084 89.9213 11.8104C89.6573 11.9124 89.4413 12.0684 89.2733 12.2784C89.1113 12.4824 89.0303 12.7374 89.0303 13.0434V18.9834H86.4023ZM108.367 18.9834H105.505L102.058 12.9264L100.132 15.2484V18.9834H97.4053V5.9694H100.132V11.9274L104.875 5.9694H107.89L103.939 11.0094L108.367 18.9834ZM109.975 18.9834V9.6774H112.558V10.9914C112.702 10.7634 112.888 10.5444 113.116 10.3344C113.35 10.1184 113.644 9.9414 113.998 9.8034C114.352 9.6654 114.772 9.5964 115.258 9.5964C115.828 9.5964 116.359 9.7074 116.851 9.9294C117.349 10.1514 117.751 10.5024 118.057 10.9824C118.363 11.4564 118.516 12.0774 118.516 12.8454V18.9834H115.888V13.1694C115.888 12.6654 115.738 12.2874 115.438 12.0354C115.138 11.7834 114.772 11.6574 114.34 11.6574C114.052 11.6574 113.773 11.7084 113.503 11.8104C113.239 11.9124 113.023 12.0654 112.855 12.2694C112.687 12.4734 112.603 12.7254 112.603 13.0254V18.9834H109.975ZM123.291 9.6774V18.9834H120.78V9.6774H123.291ZM123.318 5.9784V8.3454H120.762V5.9784H123.318ZM129.913 22.0614C128.257 22.0614 126.997 21.8514 126.133 21.4314C125.275 21.0114 124.846 20.4594 124.846 19.7754C124.846 19.4574 124.93 19.1904 125.098 18.9744C125.266 18.7584 125.461 18.5874 125.683 18.4614C125.911 18.3294 126.118 18.2304 126.304 18.1644C126.496 18.0924 126.613 18.0444 126.655 18.0204C126.559 17.9664 126.421 17.8884 126.241 17.7864C126.061 17.6784 125.893 17.5344 125.737 17.3544C125.587 17.1684 125.512 16.9284 125.512 16.6344C125.512 16.3044 125.668 15.9984 125.98 15.7164C126.298 15.4344 126.778 15.2394 127.42 15.1314C126.808 14.8434 126.343 14.4534 126.025 13.9614C125.707 13.4694 125.548 12.9654 125.548 12.4494C125.548 11.8374 125.74 11.3124 126.124 10.8744C126.508 10.4364 127.03 10.1034 127.69 9.8754C128.356 9.6474 129.109 9.5334 129.949 9.5334C130.591 9.5334 131.116 9.6024 131.524 9.7404C131.932 9.8724 132.31 10.0464 132.658 10.2624C132.796 10.2084 132.979 10.1394 133.207 10.0554C133.435 9.9654 133.681 9.8694 133.945 9.7674C134.209 9.6594 134.467 9.5544 134.719 9.4524C134.971 9.3444 135.196 9.2484 135.394 9.1644L135.385 11.1984L133.774 11.4594C133.84 11.6214 133.891 11.7954 133.927 11.9814C133.963 12.1674 133.981 12.3204 133.981 12.4404C133.981 12.9804 133.822 13.4844 133.504 13.9524C133.192 14.4204 132.721 14.7984 132.091 15.0864C131.467 15.3744 130.693 15.5184 129.769 15.5184C129.655 15.5184 129.502 15.5154 129.31 15.5094C129.124 15.5034 128.971 15.4944 128.851 15.4824C128.497 15.5004 128.254 15.5454 128.122 15.6174C127.99 15.6894 127.924 15.7734 127.924 15.8694C127.924 16.0134 128.059 16.1094 128.329 16.1574C128.599 16.1994 129.007 16.2384 129.553 16.2744C129.745 16.2864 130.012 16.3014 130.354 16.3194C130.696 16.3374 131.074 16.3614 131.488 16.3914C132.628 16.4694 133.477 16.7514 134.035 17.2374C134.599 17.7174 134.881 18.3234 134.881 19.0554C134.881 19.9254 134.467 20.6424 133.639 21.2064C132.817 21.7764 131.575 22.0614 129.913 22.0614ZM130.336 20.5944C131.068 20.5944 131.59 20.5044 131.902 20.3244C132.214 20.1444 132.37 19.8864 132.37 19.5504C132.37 19.2684 132.25 19.0404 132.01 18.8664C131.77 18.6864 131.419 18.5814 130.957 18.5514L128.824 18.4074C128.548 18.3954 128.302 18.4374 128.086 18.5334C127.876 18.6294 127.711 18.7614 127.591 18.9294C127.477 19.0974 127.42 19.2774 127.42 19.4694C127.42 19.8594 127.657 20.1444 128.131 20.3244C128.605 20.5044 129.34 20.5944 130.336 20.5944ZM129.841 14.0514C130.339 14.0514 130.738 13.9164 131.038 13.6464C131.344 13.3704 131.497 12.9984 131.497 12.5304C131.497 12.0444 131.344 11.6544 131.038 11.3604C130.738 11.0664 130.339 10.9194 129.841 10.9194C129.349 10.9194 128.947 11.0664 128.635 11.3604C128.329 11.6544 128.176 12.0444 128.176 12.5304C128.176 12.9924 128.323 13.3614 128.617 13.6374C128.917 13.9134 129.325 14.0514 129.841 14.0514ZM136.904 18.9834V5.6094H139.514V11.0184C139.664 10.8024 139.853 10.5894 140.081 10.3794C140.309 10.1634 140.594 9.9834 140.936 9.8394C141.278 9.6954 141.695 9.6234 142.187 9.6234C142.781 9.6234 143.321 9.7404 143.807 9.9744C144.299 10.2024 144.692 10.5354 144.986 10.9734C145.286 11.4114 145.436 11.9454 145.436 12.5754V18.9834H142.799V12.9624C142.799 12.5424 142.646 12.2214 142.34 11.9994C142.04 11.7714 141.674 11.6574 141.242 11.6574C140.96 11.6574 140.687 11.7084 140.423 11.8104C140.159 11.9124 139.943 12.0684 139.775 12.2784C139.613 12.4824 139.532 12.7374 139.532 13.0434V18.9834H136.904ZM152.84 11.5044H150.77L150.788 16.4634C150.788 16.6914 150.815 16.8624 150.869 16.9764C150.929 17.0844 151.019 17.1564 151.139 17.1924C151.265 17.2224 151.424 17.2374 151.616 17.2374H152.867V18.8574C152.747 18.9114 152.558 18.9624 152.3 19.0104C152.048 19.0584 151.694 19.0824 151.238 19.0824C150.422 19.0824 149.789 18.9774 149.339 18.7674C148.895 18.5574 148.586 18.2634 148.412 17.8854C148.238 17.5074 148.151 17.0694 148.151 16.5714V11.5044H146.639V9.6774H148.241L148.898 6.8694H150.77V9.6684H152.84V11.5044ZM154.781 18.9834V5.6094H157.391V11.0184C157.541 10.8024 157.73 10.5894 157.958 10.3794C158.186 10.1634 158.471 9.9834 158.813 9.8394C159.155 9.6954 159.572 9.6234 160.064 9.6234C160.658 9.6234 161.198 9.7404 161.684 9.9744C162.176 10.2024 162.569 10.5354 162.863 10.9734C163.163 11.4114 163.313 11.9454 163.313 12.5754V18.9834H160.676V12.9624C160.676 12.5424 160.523 12.2214 160.217 11.9994C159.917 11.7714 159.551 11.6574 159.119 11.6574C158.837 11.6574 158.564 11.7084 158.3 11.8104C158.036 11.9124 157.82 12.0684 157.652 12.2784C157.49 12.4824 157.409 12.7374 157.409 13.0434V18.9834H154.781ZM169.447 19.1634C168.535 19.1634 167.74 18.9684 167.062 18.5784C166.39 18.1884 165.868 17.6364 165.496 16.9224C165.13 16.2084 164.947 15.3624 164.947 14.3844C164.947 13.4064 165.13 12.5514 165.496 11.8194C165.868 11.0874 166.39 10.5174 167.062 10.1094C167.74 9.7014 168.538 9.4974 169.456 9.4974C170.374 9.4974 171.169 9.6984 171.841 10.1004C172.513 10.4964 173.032 11.0604 173.398 11.7924C173.764 12.5244 173.947 13.3884 173.947 14.3844C173.947 15.3204 173.767 16.1484 173.407 16.8684C173.053 17.5824 172.54 18.1434 171.868 18.5514C171.202 18.9594 170.395 19.1634 169.447 19.1634ZM169.456 17.2104C169.918 17.2104 170.29 17.0754 170.572 16.8054C170.854 16.5354 171.058 16.1814 171.184 15.7434C171.316 15.2994 171.382 14.8164 171.382 14.2944C171.382 13.8024 171.322 13.3374 171.202 12.8994C171.088 12.4614 170.89 12.1074 170.608 11.8374C170.326 11.5674 169.942 11.4324 169.456 11.4324C168.994 11.4324 168.619 11.5614 168.331 11.8194C168.049 12.0714 167.842 12.4164 167.71 12.8544C167.578 13.2864 167.512 13.7664 167.512 14.2944C167.512 14.7804 167.572 15.2484 167.692 15.6984C167.812 16.1424 168.013 16.5054 168.295 16.7874C168.577 17.0694 168.964 17.2104 169.456 17.2104ZM179.695 19.1634C178.783 19.1634 177.988 18.9684 177.31 18.5784C176.638 18.1884 176.116 17.6364 175.744 16.9224C175.378 16.2084 175.195 15.3624 175.195 14.3844C175.195 13.4064 175.378 12.5514 175.744 11.8194C176.116 11.0874 176.638 10.5174 177.31 10.1094C177.988 9.7014 178.786 9.4974 179.704 9.4974C180.622 9.4974 181.417 9.6984 182.089 10.1004C182.761 10.4964 183.28 11.0604 183.646 11.7924C184.012 12.5244 184.195 13.3884 184.195 14.3844C184.195 15.3204 184.015 16.1484 183.655 16.8684C183.301 17.5824 182.788 18.1434 182.116 18.5514C181.45 18.9594 180.643 19.1634 179.695 19.1634ZM179.704 17.2104C180.166 17.2104 180.538 17.0754 180.82 16.8054C181.102 16.5354 181.306 16.1814 181.432 15.7434C181.564 15.2994 181.63 14.8164 181.63 14.2944C181.63 13.8024 181.57 13.3374 181.45 12.8994C181.336 12.4614 181.138 12.1074 180.856 11.8374C180.574 11.5674 180.19 11.4324 179.704 11.4324C179.242 11.4324 178.867 11.5614 178.579 11.8194C178.297 12.0714 178.09 12.4164 177.958 12.8544C177.826 13.2864 177.76 13.7664 177.76 14.2944C177.76 14.7804 177.82 15.2484 177.94 15.6984C178.06 16.1424 178.261 16.5054 178.543 16.7874C178.825 17.0694 179.212 17.2104 179.704 17.2104ZM189.403 19.1634C188.155 19.1634 187.183 18.7344 186.487 17.8764C185.791 17.0124 185.443 15.8124 185.443 14.2764C185.443 13.3044 185.584 12.4614 185.866 11.7474C186.148 11.0334 186.565 10.4814 187.117 10.0914C187.669 9.6954 188.344 9.4974 189.142 9.4974C189.478 9.4974 189.79 9.5364 190.078 9.6144C190.372 9.6864 190.639 9.7884 190.879 9.9204C191.119 10.0524 191.329 10.2054 191.509 10.3794C191.689 10.5534 191.836 10.7394 191.95 10.9374V5.6094H194.587V18.9834H192.679L192.382 17.0754C192.298 17.3334 192.181 17.5854 192.031 17.8314C191.881 18.0774 191.689 18.3024 191.455 18.5064C191.221 18.7044 190.933 18.8634 190.591 18.9834C190.255 19.1034 189.859 19.1634 189.403 19.1634ZM189.979 17.2734C190.639 17.2734 191.131 17.0424 191.455 16.5804C191.785 16.1184 191.95 15.3384 191.95 14.2404C191.944 13.6044 191.869 13.0764 191.725 12.6564C191.581 12.2364 191.365 11.9244 191.077 11.7204C190.795 11.5104 190.435 11.4054 189.997 11.4054C189.427 11.4054 188.953 11.6244 188.575 12.0624C188.197 12.4944 188.008 13.2204 188.008 14.2404C188.008 15.2784 188.185 16.0434 188.539 16.5354C188.893 17.0274 189.373 17.2734 189.979 17.2734Z" fill="#121212"/>
</svg>
