<svg width="16" height="17" viewBox="0 0 16 17" fill="none" xmlns="http://www.w3.org/2000/svg">
<path d="M8.8 14.5045V16.1045H7.2V14.5045H0.8C0.358176 14.5045 0 14.1463 0 13.7045V2.50449H16V13.7045C16 14.1463 15.6418 14.5045 15.2 14.5045H8.8ZM4.8 5.70449C3.47452 5.70449 2.4 6.77897 2.4 8.10449C2.4 9.43001 3.47452 10.5045 4.8 10.5045C6.12548 10.5045 7.2 9.43001 7.2 8.10449H4.8V5.70449ZM8.8 5.70449V7.30449H13.6V5.70449H8.8ZM8.8 8.90449V10.5045H13.6V8.90449H8.8ZM0 0.104492H16V1.70449H0V0.104492Z" fill="black"/>
</svg>
